%TF.GenerationSoftware,KiCad,Pcbnew,(5.1.7)-1*%
%TF.CreationDate,2021-10-17T00:26:19+02:00*%
%TF.ProjectId,1A buck v1,31412062-7563-46b2-9076-312e6b696361,rev?*%
%TF.SameCoordinates,Original*%
%TF.FileFunction,Legend,Top*%
%TF.FilePolarity,Positive*%
%FSLAX46Y46*%
G04 Gerber Fmt 4.6, Leading zero omitted, Abs format (unit mm)*
G04 Created by KiCad (PCBNEW (5.1.7)-1) date 2021-10-17 00:26:19*
%MOMM*%
%LPD*%
G01*
G04 APERTURE LIST*
%ADD10C,0.175000*%
%ADD11C,0.120000*%
%ADD12C,0.150000*%
G04 APERTURE END LIST*
D10*
X151630133Y-91997966D02*
X151563466Y-91964633D01*
X151530133Y-91931300D01*
X151496800Y-91864633D01*
X151496800Y-91664633D01*
X151530133Y-91597966D01*
X151563466Y-91564633D01*
X151630133Y-91531300D01*
X151730133Y-91531300D01*
X151796800Y-91564633D01*
X151830133Y-91597966D01*
X151863466Y-91664633D01*
X151863466Y-91864633D01*
X151830133Y-91931300D01*
X151796800Y-91964633D01*
X151730133Y-91997966D01*
X151630133Y-91997966D01*
X152463466Y-91531300D02*
X152463466Y-91997966D01*
X152163466Y-91531300D02*
X152163466Y-91897966D01*
X152196800Y-91964633D01*
X152263466Y-91997966D01*
X152363466Y-91997966D01*
X152430133Y-91964633D01*
X152463466Y-91931300D01*
X152696800Y-91531300D02*
X152963466Y-91531300D01*
X152796800Y-91297966D02*
X152796800Y-91897966D01*
X152830133Y-91964633D01*
X152896800Y-91997966D01*
X152963466Y-91997966D01*
D11*
%TO.C,C5*%
X144143000Y-85851420D02*
X144143000Y-86132580D01*
X145163000Y-85851420D02*
X145163000Y-86132580D01*
%TO.C,C6*%
X142428500Y-85851420D02*
X142428500Y-86132580D01*
X143448500Y-85851420D02*
X143448500Y-86132580D01*
%TO.C,C3*%
X150648500Y-85104448D02*
X150648500Y-86526952D01*
X147928500Y-85104448D02*
X147928500Y-86526952D01*
%TO.C,C1*%
X139076600Y-89063352D02*
X139076600Y-87640848D01*
X141796600Y-89063352D02*
X141796600Y-87640848D01*
%TO.C,R1*%
X145316641Y-91110800D02*
X145009359Y-91110800D01*
X145316641Y-91870800D02*
X145009359Y-91870800D01*
%TO.C,C4*%
X145873800Y-84955748D02*
X145873800Y-85478252D01*
X147343800Y-84955748D02*
X147343800Y-85478252D01*
%TO.C,U1*%
X145264400Y-87680400D02*
X143504400Y-87680400D01*
X143504400Y-90750400D02*
X145934400Y-90750400D01*
%TO.C,R2*%
X148378500Y-90075936D02*
X148378500Y-91530064D01*
X150198500Y-90075936D02*
X150198500Y-91530064D01*
%TD*%
%TO.C,C5*%
D12*
X145057033Y-84222400D02*
X145023700Y-84255733D01*
X144923700Y-84289066D01*
X144857033Y-84289066D01*
X144757033Y-84255733D01*
X144690366Y-84189066D01*
X144657033Y-84122400D01*
X144623700Y-83989066D01*
X144623700Y-83889066D01*
X144657033Y-83755733D01*
X144690366Y-83689066D01*
X144757033Y-83622400D01*
X144857033Y-83589066D01*
X144923700Y-83589066D01*
X145023700Y-83622400D01*
X145057033Y-83655733D01*
X145690366Y-83589066D02*
X145357033Y-83589066D01*
X145323700Y-83922400D01*
X145357033Y-83889066D01*
X145423700Y-83855733D01*
X145590366Y-83855733D01*
X145657033Y-83889066D01*
X145690366Y-83922400D01*
X145723700Y-83989066D01*
X145723700Y-84155733D01*
X145690366Y-84222400D01*
X145657033Y-84255733D01*
X145590366Y-84289066D01*
X145423700Y-84289066D01*
X145357033Y-84255733D01*
X145323700Y-84222400D01*
%TO.C,C6*%
X142021733Y-84222400D02*
X141988400Y-84255733D01*
X141888400Y-84289066D01*
X141821733Y-84289066D01*
X141721733Y-84255733D01*
X141655066Y-84189066D01*
X141621733Y-84122400D01*
X141588400Y-83989066D01*
X141588400Y-83889066D01*
X141621733Y-83755733D01*
X141655066Y-83689066D01*
X141721733Y-83622400D01*
X141821733Y-83589066D01*
X141888400Y-83589066D01*
X141988400Y-83622400D01*
X142021733Y-83655733D01*
X142621733Y-83589066D02*
X142488400Y-83589066D01*
X142421733Y-83622400D01*
X142388400Y-83655733D01*
X142321733Y-83755733D01*
X142288400Y-83889066D01*
X142288400Y-84155733D01*
X142321733Y-84222400D01*
X142355066Y-84255733D01*
X142421733Y-84289066D01*
X142555066Y-84289066D01*
X142621733Y-84255733D01*
X142655066Y-84222400D01*
X142688400Y-84155733D01*
X142688400Y-83989066D01*
X142655066Y-83922400D01*
X142621733Y-83889066D01*
X142555066Y-83855733D01*
X142421733Y-83855733D01*
X142355066Y-83889066D01*
X142321733Y-83922400D01*
X142288400Y-83989066D01*
%TO.C,C3*%
X149806833Y-86305200D02*
X149773500Y-86338533D01*
X149673500Y-86371866D01*
X149606833Y-86371866D01*
X149506833Y-86338533D01*
X149440166Y-86271866D01*
X149406833Y-86205200D01*
X149373500Y-86071866D01*
X149373500Y-85971866D01*
X149406833Y-85838533D01*
X149440166Y-85771866D01*
X149506833Y-85705200D01*
X149606833Y-85671866D01*
X149673500Y-85671866D01*
X149773500Y-85705200D01*
X149806833Y-85738533D01*
X150040166Y-85671866D02*
X150473500Y-85671866D01*
X150240166Y-85938533D01*
X150340166Y-85938533D01*
X150406833Y-85971866D01*
X150440166Y-86005200D01*
X150473500Y-86071866D01*
X150473500Y-86238533D01*
X150440166Y-86305200D01*
X150406833Y-86338533D01*
X150340166Y-86371866D01*
X150140166Y-86371866D01*
X150073500Y-86338533D01*
X150040166Y-86305200D01*
%TO.C,C1*%
X140281833Y-88629300D02*
X140248500Y-88662633D01*
X140148500Y-88695966D01*
X140081833Y-88695966D01*
X139981833Y-88662633D01*
X139915166Y-88595966D01*
X139881833Y-88529300D01*
X139848500Y-88395966D01*
X139848500Y-88295966D01*
X139881833Y-88162633D01*
X139915166Y-88095966D01*
X139981833Y-88029300D01*
X140081833Y-87995966D01*
X140148500Y-87995966D01*
X140248500Y-88029300D01*
X140281833Y-88062633D01*
X140948500Y-88695966D02*
X140548500Y-88695966D01*
X140748500Y-88695966D02*
X140748500Y-87995966D01*
X140681833Y-88095966D01*
X140615166Y-88162633D01*
X140548500Y-88195966D01*
%TO.C,R1*%
X146822333Y-92556766D02*
X146589000Y-92223433D01*
X146422333Y-92556766D02*
X146422333Y-91856766D01*
X146689000Y-91856766D01*
X146755666Y-91890100D01*
X146789000Y-91923433D01*
X146822333Y-91990100D01*
X146822333Y-92090100D01*
X146789000Y-92156766D01*
X146755666Y-92190100D01*
X146689000Y-92223433D01*
X146422333Y-92223433D01*
X147489000Y-92556766D02*
X147089000Y-92556766D01*
X147289000Y-92556766D02*
X147289000Y-91856766D01*
X147222333Y-91956766D01*
X147155666Y-92023433D01*
X147089000Y-92056766D01*
%TO.C,-*%
X151879347Y-91003428D02*
X152641252Y-91003428D01*
%TO.C,+*%
X151841247Y-84615328D02*
X152603152Y-84615328D01*
X152222200Y-84996280D02*
X152222200Y-84234376D01*
%TO.C,-*%
X138958628Y-84962952D02*
X138958628Y-84201047D01*
%TO.C,C4*%
X148498733Y-85924200D02*
X148465400Y-85957533D01*
X148365400Y-85990866D01*
X148298733Y-85990866D01*
X148198733Y-85957533D01*
X148132066Y-85890866D01*
X148098733Y-85824200D01*
X148065400Y-85690866D01*
X148065400Y-85590866D01*
X148098733Y-85457533D01*
X148132066Y-85390866D01*
X148198733Y-85324200D01*
X148298733Y-85290866D01*
X148365400Y-85290866D01*
X148465400Y-85324200D01*
X148498733Y-85357533D01*
X149098733Y-85524200D02*
X149098733Y-85990866D01*
X148932066Y-85257533D02*
X148765400Y-85757533D01*
X149198733Y-85757533D01*
%TO.C,U1*%
X146809666Y-90995433D02*
X147376333Y-90995433D01*
X147443000Y-90962100D01*
X147476333Y-90928766D01*
X147509666Y-90862100D01*
X147509666Y-90728766D01*
X147476333Y-90662100D01*
X147443000Y-90628766D01*
X147376333Y-90595433D01*
X146809666Y-90595433D01*
X147509666Y-89895433D02*
X147509666Y-90295433D01*
X147509666Y-90095433D02*
X146809666Y-90095433D01*
X146909666Y-90162100D01*
X146976333Y-90228766D01*
X147009666Y-90295433D01*
%TO.C,R2*%
X149133733Y-91083566D02*
X148900400Y-90750233D01*
X148733733Y-91083566D02*
X148733733Y-90383566D01*
X149000400Y-90383566D01*
X149067066Y-90416900D01*
X149100400Y-90450233D01*
X149133733Y-90516900D01*
X149133733Y-90616900D01*
X149100400Y-90683566D01*
X149067066Y-90716900D01*
X149000400Y-90750233D01*
X148733733Y-90750233D01*
X149400400Y-90450233D02*
X149433733Y-90416900D01*
X149500400Y-90383566D01*
X149667066Y-90383566D01*
X149733733Y-90416900D01*
X149767066Y-90450233D01*
X149800400Y-90516900D01*
X149800400Y-90583566D01*
X149767066Y-90683566D01*
X149367066Y-91083566D01*
X149800400Y-91083566D01*
%TD*%
M02*
