%TF.GenerationSoftware,KiCad,Pcbnew,(5.1.7)-1*%
%TF.CreationDate,2021-10-17T00:26:19+02:00*%
%TF.ProjectId,1A buck v1,31412062-7563-46b2-9076-312e6b696361,rev?*%
%TF.SameCoordinates,Original*%
%TF.FileFunction,Paste,Top*%
%TF.FilePolarity,Positive*%
%FSLAX46Y46*%
G04 Gerber Fmt 4.6, Leading zero omitted, Abs format (unit mm)*
G04 Created by KiCad (PCBNEW (5.1.7)-1) date 2021-10-17 00:26:19*
%MOMM*%
%LPD*%
G01*
G04 APERTURE LIST*
%ADD10R,1.220000X0.650000*%
G04 APERTURE END LIST*
%TO.C,C5*%
G36*
G01*
X144403000Y-86317000D02*
X144903000Y-86317000D01*
G75*
G02*
X145128000Y-86542000I0J-225000D01*
G01*
X145128000Y-86992000D01*
G75*
G02*
X144903000Y-87217000I-225000J0D01*
G01*
X144403000Y-87217000D01*
G75*
G02*
X144178000Y-86992000I0J225000D01*
G01*
X144178000Y-86542000D01*
G75*
G02*
X144403000Y-86317000I225000J0D01*
G01*
G37*
G36*
G01*
X144403000Y-84767000D02*
X144903000Y-84767000D01*
G75*
G02*
X145128000Y-84992000I0J-225000D01*
G01*
X145128000Y-85442000D01*
G75*
G02*
X144903000Y-85667000I-225000J0D01*
G01*
X144403000Y-85667000D01*
G75*
G02*
X144178000Y-85442000I0J225000D01*
G01*
X144178000Y-84992000D01*
G75*
G02*
X144403000Y-84767000I225000J0D01*
G01*
G37*
%TD*%
%TO.C,C6*%
G36*
G01*
X142688500Y-86317000D02*
X143188500Y-86317000D01*
G75*
G02*
X143413500Y-86542000I0J-225000D01*
G01*
X143413500Y-86992000D01*
G75*
G02*
X143188500Y-87217000I-225000J0D01*
G01*
X142688500Y-87217000D01*
G75*
G02*
X142463500Y-86992000I0J225000D01*
G01*
X142463500Y-86542000D01*
G75*
G02*
X142688500Y-86317000I225000J0D01*
G01*
G37*
G36*
G01*
X142688500Y-84767000D02*
X143188500Y-84767000D01*
G75*
G02*
X143413500Y-84992000I0J-225000D01*
G01*
X143413500Y-85442000D01*
G75*
G02*
X143188500Y-85667000I-225000J0D01*
G01*
X142688500Y-85667000D01*
G75*
G02*
X142463500Y-85442000I0J225000D01*
G01*
X142463500Y-84992000D01*
G75*
G02*
X142688500Y-84767000I225000J0D01*
G01*
G37*
%TD*%
%TO.C,C3*%
G36*
G01*
X148188499Y-86715700D02*
X150388501Y-86715700D01*
G75*
G02*
X150638500Y-86965699I0J-249999D01*
G01*
X150638500Y-87615701D01*
G75*
G02*
X150388501Y-87865700I-249999J0D01*
G01*
X148188499Y-87865700D01*
G75*
G02*
X147938500Y-87615701I0J249999D01*
G01*
X147938500Y-86965699D01*
G75*
G02*
X148188499Y-86715700I249999J0D01*
G01*
G37*
G36*
G01*
X148188499Y-83765700D02*
X150388501Y-83765700D01*
G75*
G02*
X150638500Y-84015699I0J-249999D01*
G01*
X150638500Y-84665701D01*
G75*
G02*
X150388501Y-84915700I-249999J0D01*
G01*
X148188499Y-84915700D01*
G75*
G02*
X147938500Y-84665701I0J249999D01*
G01*
X147938500Y-84015699D01*
G75*
G02*
X148188499Y-83765700I249999J0D01*
G01*
G37*
%TD*%
%TO.C,C1*%
G36*
G01*
X141536601Y-87452100D02*
X139336599Y-87452100D01*
G75*
G02*
X139086600Y-87202101I0J249999D01*
G01*
X139086600Y-86552099D01*
G75*
G02*
X139336599Y-86302100I249999J0D01*
G01*
X141536601Y-86302100D01*
G75*
G02*
X141786600Y-86552099I0J-249999D01*
G01*
X141786600Y-87202101D01*
G75*
G02*
X141536601Y-87452100I-249999J0D01*
G01*
G37*
G36*
G01*
X141536601Y-90402100D02*
X139336599Y-90402100D01*
G75*
G02*
X139086600Y-90152101I0J249999D01*
G01*
X139086600Y-89502099D01*
G75*
G02*
X139336599Y-89252100I249999J0D01*
G01*
X141536601Y-89252100D01*
G75*
G02*
X141786600Y-89502099I0J-249999D01*
G01*
X141786600Y-90152101D01*
G75*
G02*
X141536601Y-90402100I-249999J0D01*
G01*
G37*
%TD*%
%TO.C,R1*%
G36*
G01*
X144923000Y-91305800D02*
X144923000Y-91675800D01*
G75*
G02*
X144788000Y-91810800I-135000J0D01*
G01*
X144518000Y-91810800D01*
G75*
G02*
X144383000Y-91675800I0J135000D01*
G01*
X144383000Y-91305800D01*
G75*
G02*
X144518000Y-91170800I135000J0D01*
G01*
X144788000Y-91170800D01*
G75*
G02*
X144923000Y-91305800I0J-135000D01*
G01*
G37*
G36*
G01*
X145943000Y-91305800D02*
X145943000Y-91675800D01*
G75*
G02*
X145808000Y-91810800I-135000J0D01*
G01*
X145538000Y-91810800D01*
G75*
G02*
X145403000Y-91675800I0J135000D01*
G01*
X145403000Y-91305800D01*
G75*
G02*
X145538000Y-91170800I135000J0D01*
G01*
X145808000Y-91170800D01*
G75*
G02*
X145943000Y-91305800I0J-135000D01*
G01*
G37*
%TD*%
%TO.C,C4*%
G36*
G01*
X146133800Y-85667000D02*
X147083800Y-85667000D01*
G75*
G02*
X147333800Y-85917000I0J-250000D01*
G01*
X147333800Y-86417000D01*
G75*
G02*
X147083800Y-86667000I-250000J0D01*
G01*
X146133800Y-86667000D01*
G75*
G02*
X145883800Y-86417000I0J250000D01*
G01*
X145883800Y-85917000D01*
G75*
G02*
X146133800Y-85667000I250000J0D01*
G01*
G37*
G36*
G01*
X146133800Y-83767000D02*
X147083800Y-83767000D01*
G75*
G02*
X147333800Y-84017000I0J-250000D01*
G01*
X147333800Y-84517000D01*
G75*
G02*
X147083800Y-84767000I-250000J0D01*
G01*
X146133800Y-84767000D01*
G75*
G02*
X145883800Y-84517000I0J250000D01*
G01*
X145883800Y-84017000D01*
G75*
G02*
X146133800Y-83767000I250000J0D01*
G01*
G37*
%TD*%
D10*
%TO.C,U1*%
X143074400Y-90190400D03*
X143074400Y-88290400D03*
X145694400Y-88290400D03*
X145694400Y-89240400D03*
X145694400Y-90190400D03*
%TD*%
%TO.C,R2*%
G36*
G01*
X148663497Y-88778000D02*
X149913503Y-88778000D01*
G75*
G02*
X150163500Y-89027997I0J-249997D01*
G01*
X150163500Y-89653003D01*
G75*
G02*
X149913503Y-89903000I-249997J0D01*
G01*
X148663497Y-89903000D01*
G75*
G02*
X148413500Y-89653003I0J249997D01*
G01*
X148413500Y-89027997D01*
G75*
G02*
X148663497Y-88778000I249997J0D01*
G01*
G37*
G36*
G01*
X148663497Y-91703000D02*
X149913503Y-91703000D01*
G75*
G02*
X150163500Y-91952997I0J-249997D01*
G01*
X150163500Y-92578003D01*
G75*
G02*
X149913503Y-92828000I-249997J0D01*
G01*
X148663497Y-92828000D01*
G75*
G02*
X148413500Y-92578003I0J249997D01*
G01*
X148413500Y-91952997D01*
G75*
G02*
X148663497Y-91703000I249997J0D01*
G01*
G37*
%TD*%
M02*
