%TF.GenerationSoftware,KiCad,Pcbnew,(5.1.7)-1*%
%TF.CreationDate,2021-10-17T00:26:19+02:00*%
%TF.ProjectId,1A buck v1,31412062-7563-46b2-9076-312e6b696361,rev?*%
%TF.SameCoordinates,Original*%
%TF.FileFunction,Copper,L1,Top*%
%TF.FilePolarity,Positive*%
%FSLAX46Y46*%
G04 Gerber Fmt 4.6, Leading zero omitted, Abs format (unit mm)*
G04 Created by KiCad (PCBNEW (5.1.7)-1) date 2021-10-17 00:26:19*
%MOMM*%
%LPD*%
G01*
G04 APERTURE LIST*
%TA.AperFunction,ComponentPad*%
%ADD10C,2.000000*%
%TD*%
%TA.AperFunction,SMDPad,CuDef*%
%ADD11R,1.220000X0.650000*%
%TD*%
%TA.AperFunction,ViaPad*%
%ADD12C,0.800000*%
%TD*%
%TA.AperFunction,ViaPad*%
%ADD13C,0.600000*%
%TD*%
%TA.AperFunction,Conductor*%
%ADD14C,0.800000*%
%TD*%
%TA.AperFunction,Conductor*%
%ADD15C,0.600000*%
%TD*%
%TA.AperFunction,Conductor*%
%ADD16C,0.400000*%
%TD*%
%TA.AperFunction,Conductor*%
%ADD17C,0.100000*%
%TD*%
G04 APERTURE END LIST*
%TO.P,C5,2*%
%TO.N,GND*%
%TA.AperFunction,SMDPad,CuDef*%
G36*
G01*
X144403000Y-86317000D02*
X144903000Y-86317000D01*
G75*
G02*
X145128000Y-86542000I0J-225000D01*
G01*
X145128000Y-86992000D01*
G75*
G02*
X144903000Y-87217000I-225000J0D01*
G01*
X144403000Y-87217000D01*
G75*
G02*
X144178000Y-86992000I0J225000D01*
G01*
X144178000Y-86542000D01*
G75*
G02*
X144403000Y-86317000I225000J0D01*
G01*
G37*
%TD.AperFunction*%
%TO.P,C5,1*%
%TO.N,OUT+*%
%TA.AperFunction,SMDPad,CuDef*%
G36*
G01*
X144403000Y-84767000D02*
X144903000Y-84767000D01*
G75*
G02*
X145128000Y-84992000I0J-225000D01*
G01*
X145128000Y-85442000D01*
G75*
G02*
X144903000Y-85667000I-225000J0D01*
G01*
X144403000Y-85667000D01*
G75*
G02*
X144178000Y-85442000I0J225000D01*
G01*
X144178000Y-84992000D01*
G75*
G02*
X144403000Y-84767000I225000J0D01*
G01*
G37*
%TD.AperFunction*%
%TD*%
%TO.P,C6,2*%
%TO.N,GND*%
%TA.AperFunction,SMDPad,CuDef*%
G36*
G01*
X142688500Y-86317000D02*
X143188500Y-86317000D01*
G75*
G02*
X143413500Y-86542000I0J-225000D01*
G01*
X143413500Y-86992000D01*
G75*
G02*
X143188500Y-87217000I-225000J0D01*
G01*
X142688500Y-87217000D01*
G75*
G02*
X142463500Y-86992000I0J225000D01*
G01*
X142463500Y-86542000D01*
G75*
G02*
X142688500Y-86317000I225000J0D01*
G01*
G37*
%TD.AperFunction*%
%TO.P,C6,1*%
%TO.N,OUT+*%
%TA.AperFunction,SMDPad,CuDef*%
G36*
G01*
X142688500Y-84767000D02*
X143188500Y-84767000D01*
G75*
G02*
X143413500Y-84992000I0J-225000D01*
G01*
X143413500Y-85442000D01*
G75*
G02*
X143188500Y-85667000I-225000J0D01*
G01*
X142688500Y-85667000D01*
G75*
G02*
X142463500Y-85442000I0J225000D01*
G01*
X142463500Y-84992000D01*
G75*
G02*
X142688500Y-84767000I225000J0D01*
G01*
G37*
%TD.AperFunction*%
%TD*%
%TO.P,C3,2*%
%TO.N,GND*%
%TA.AperFunction,SMDPad,CuDef*%
G36*
G01*
X148188499Y-86715700D02*
X150388501Y-86715700D01*
G75*
G02*
X150638500Y-86965699I0J-249999D01*
G01*
X150638500Y-87615701D01*
G75*
G02*
X150388501Y-87865700I-249999J0D01*
G01*
X148188499Y-87865700D01*
G75*
G02*
X147938500Y-87615701I0J249999D01*
G01*
X147938500Y-86965699D01*
G75*
G02*
X148188499Y-86715700I249999J0D01*
G01*
G37*
%TD.AperFunction*%
%TO.P,C3,1*%
%TO.N,OUT+*%
%TA.AperFunction,SMDPad,CuDef*%
G36*
G01*
X148188499Y-83765700D02*
X150388501Y-83765700D01*
G75*
G02*
X150638500Y-84015699I0J-249999D01*
G01*
X150638500Y-84665701D01*
G75*
G02*
X150388501Y-84915700I-249999J0D01*
G01*
X148188499Y-84915700D01*
G75*
G02*
X147938500Y-84665701I0J249999D01*
G01*
X147938500Y-84015699D01*
G75*
G02*
X148188499Y-83765700I249999J0D01*
G01*
G37*
%TD.AperFunction*%
%TD*%
%TO.P,C1,2*%
%TO.N,GND*%
%TA.AperFunction,SMDPad,CuDef*%
G36*
G01*
X141536601Y-87452100D02*
X139336599Y-87452100D01*
G75*
G02*
X139086600Y-87202101I0J249999D01*
G01*
X139086600Y-86552099D01*
G75*
G02*
X139336599Y-86302100I249999J0D01*
G01*
X141536601Y-86302100D01*
G75*
G02*
X141786600Y-86552099I0J-249999D01*
G01*
X141786600Y-87202101D01*
G75*
G02*
X141536601Y-87452100I-249999J0D01*
G01*
G37*
%TD.AperFunction*%
%TO.P,C1,1*%
%TO.N,VCC*%
%TA.AperFunction,SMDPad,CuDef*%
G36*
G01*
X141536601Y-90402100D02*
X139336599Y-90402100D01*
G75*
G02*
X139086600Y-90152101I0J249999D01*
G01*
X139086600Y-89502099D01*
G75*
G02*
X139336599Y-89252100I249999J0D01*
G01*
X141536601Y-89252100D01*
G75*
G02*
X141786600Y-89502099I0J-249999D01*
G01*
X141786600Y-90152101D01*
G75*
G02*
X141536601Y-90402100I-249999J0D01*
G01*
G37*
%TD.AperFunction*%
%TD*%
D10*
%TO.P,H2,1*%
%TO.N,GND*%
X140436600Y-84683600D03*
%TD*%
%TO.P,R1,2*%
%TO.N,VCC*%
%TA.AperFunction,SMDPad,CuDef*%
G36*
G01*
X144923000Y-91305800D02*
X144923000Y-91675800D01*
G75*
G02*
X144788000Y-91810800I-135000J0D01*
G01*
X144518000Y-91810800D01*
G75*
G02*
X144383000Y-91675800I0J135000D01*
G01*
X144383000Y-91305800D01*
G75*
G02*
X144518000Y-91170800I135000J0D01*
G01*
X144788000Y-91170800D01*
G75*
G02*
X144923000Y-91305800I0J-135000D01*
G01*
G37*
%TD.AperFunction*%
%TO.P,R1,1*%
%TO.N,Net-(R1-Pad1)*%
%TA.AperFunction,SMDPad,CuDef*%
G36*
G01*
X145943000Y-91305800D02*
X145943000Y-91675800D01*
G75*
G02*
X145808000Y-91810800I-135000J0D01*
G01*
X145538000Y-91810800D01*
G75*
G02*
X145403000Y-91675800I0J135000D01*
G01*
X145403000Y-91305800D01*
G75*
G02*
X145538000Y-91170800I135000J0D01*
G01*
X145808000Y-91170800D01*
G75*
G02*
X145943000Y-91305800I0J-135000D01*
G01*
G37*
%TD.AperFunction*%
%TD*%
%TO.P,-,1*%
%TO.N,OUT-*%
X152247600Y-89306400D03*
%TD*%
%TO.P,+,1*%
%TO.N,OUT+*%
X152247600Y-86614000D03*
%TD*%
%TO.P,-,1*%
%TO.N,VCC*%
X140436600Y-91973400D03*
%TD*%
%TO.P,C4,2*%
%TO.N,GND*%
%TA.AperFunction,SMDPad,CuDef*%
G36*
G01*
X146133800Y-85667000D02*
X147083800Y-85667000D01*
G75*
G02*
X147333800Y-85917000I0J-250000D01*
G01*
X147333800Y-86417000D01*
G75*
G02*
X147083800Y-86667000I-250000J0D01*
G01*
X146133800Y-86667000D01*
G75*
G02*
X145883800Y-86417000I0J250000D01*
G01*
X145883800Y-85917000D01*
G75*
G02*
X146133800Y-85667000I250000J0D01*
G01*
G37*
%TD.AperFunction*%
%TO.P,C4,1*%
%TO.N,OUT+*%
%TA.AperFunction,SMDPad,CuDef*%
G36*
G01*
X146133800Y-83767000D02*
X147083800Y-83767000D01*
G75*
G02*
X147333800Y-84017000I0J-250000D01*
G01*
X147333800Y-84517000D01*
G75*
G02*
X147083800Y-84767000I-250000J0D01*
G01*
X146133800Y-84767000D01*
G75*
G02*
X145883800Y-84517000I0J250000D01*
G01*
X145883800Y-84017000D01*
G75*
G02*
X146133800Y-83767000I250000J0D01*
G01*
G37*
%TD.AperFunction*%
%TD*%
D11*
%TO.P,U1,5*%
%TO.N,OUT-*%
X143074400Y-90190400D03*
%TO.P,U1,4*%
%TO.N,VCC*%
X143074400Y-88290400D03*
%TO.P,U1,3*%
%TO.N,Net-(L1-Pad1)*%
X145694400Y-88290400D03*
%TO.P,U1,2*%
%TO.N,GND*%
X145694400Y-89240400D03*
%TO.P,U1,1*%
%TO.N,Net-(R1-Pad1)*%
X145694400Y-90190400D03*
%TD*%
%TO.P,R2,1*%
%TO.N,OUT-*%
%TA.AperFunction,SMDPad,CuDef*%
G36*
G01*
X148663497Y-88778000D02*
X149913503Y-88778000D01*
G75*
G02*
X150163500Y-89027997I0J-249997D01*
G01*
X150163500Y-89653003D01*
G75*
G02*
X149913503Y-89903000I-249997J0D01*
G01*
X148663497Y-89903000D01*
G75*
G02*
X148413500Y-89653003I0J249997D01*
G01*
X148413500Y-89027997D01*
G75*
G02*
X148663497Y-88778000I249997J0D01*
G01*
G37*
%TD.AperFunction*%
%TO.P,R2,2*%
%TO.N,GND*%
%TA.AperFunction,SMDPad,CuDef*%
G36*
G01*
X148663497Y-91703000D02*
X149913503Y-91703000D01*
G75*
G02*
X150163500Y-91952997I0J-249997D01*
G01*
X150163500Y-92578003D01*
G75*
G02*
X149913503Y-92828000I-249997J0D01*
G01*
X148663497Y-92828000D01*
G75*
G02*
X148413500Y-92578003I0J249997D01*
G01*
X148413500Y-91952997D01*
G75*
G02*
X148663497Y-91703000I249997J0D01*
G01*
G37*
%TD.AperFunction*%
%TD*%
D12*
%TO.N,GND*%
X151396700Y-92735400D03*
X152273000Y-92710000D03*
X153136600Y-92710000D03*
X145694400Y-87287100D03*
X146507200Y-87109300D03*
X153035000Y-83947000D03*
D13*
X141719300Y-90919300D03*
D12*
%TO.N,OUT+*%
X143205200Y-84048600D03*
X144119600Y-84048600D03*
%TO.N,Net-(L1-Pad1)*%
X147218400Y-88773000D03*
X147218400Y-87909400D03*
%TD*%
D14*
%TO.N,GND*%
X140436600Y-86877100D02*
X140436600Y-84683600D01*
%TO.N,VCC*%
X140436600Y-91973400D02*
X140436600Y-89827100D01*
X140436600Y-89827100D02*
X141122400Y-89827100D01*
X142659100Y-88290400D02*
X143074400Y-88290400D01*
X143484600Y-88290400D02*
X143074400Y-88290400D01*
X144653000Y-91490800D02*
X144471910Y-91309710D01*
X143074400Y-88290400D02*
X143074400Y-88383673D01*
X144471910Y-89781183D02*
X144471910Y-91309710D01*
X143387526Y-88696800D02*
X143474163Y-88783437D01*
X142252700Y-88696800D02*
X143387526Y-88696800D01*
X143074400Y-88383673D02*
X143474163Y-88783437D01*
X142252700Y-88696800D02*
X142659100Y-88290400D01*
X143074400Y-88290400D02*
X143586200Y-88290400D01*
X143734514Y-88438714D02*
X143734514Y-89043786D01*
X143586200Y-88290400D02*
X143734514Y-88438714D01*
X143734514Y-89043786D02*
X144471910Y-89781183D01*
X143474163Y-88783437D02*
X143734514Y-89043786D01*
X143692328Y-89001600D02*
X143734514Y-89043786D01*
X141947900Y-89001600D02*
X143692328Y-89001600D01*
X141122400Y-89827100D02*
X141947900Y-89001600D01*
X141947900Y-89001600D02*
X142252700Y-88696800D01*
%TO.N,OUT+*%
X149275800Y-84277200D02*
X149910800Y-84277200D01*
X149199600Y-84201000D02*
X149275800Y-84277200D01*
D15*
X144653000Y-85217000D02*
X144665700Y-85217000D01*
D14*
X142938500Y-84315300D02*
X143205200Y-84048600D01*
X142938500Y-85217000D02*
X142938500Y-84315300D01*
X143205200Y-84048600D02*
X144119600Y-84048600D01*
X144653000Y-84582000D02*
X144119600Y-84048600D01*
X144653000Y-85217000D02*
X144653000Y-84582000D01*
X143598900Y-85217000D02*
X143598900Y-84759800D01*
X142938500Y-85217000D02*
X143598900Y-85217000D01*
X143598900Y-85217000D02*
X144653000Y-85217000D01*
X143598900Y-84759800D02*
X143700500Y-84658200D01*
X143700500Y-84658200D02*
X144056100Y-84658200D01*
X146608800Y-84267000D02*
X145603000Y-84267000D01*
X144338000Y-84267000D02*
X144119600Y-84048600D01*
X145603000Y-84267000D02*
X144338000Y-84267000D01*
X149214800Y-84267000D02*
X149288500Y-84340700D01*
X146608800Y-84267000D02*
X149214800Y-84267000D01*
X149288500Y-84340700D02*
X149974300Y-84340700D01*
X151015700Y-84429600D02*
X152247600Y-85661500D01*
X150336250Y-84702650D02*
X150463250Y-84829650D01*
X150463250Y-84829650D02*
X152247600Y-86614000D01*
X145603000Y-84267000D02*
X145167350Y-84702650D01*
X145167350Y-84702650D02*
X150336250Y-84702650D01*
X149974300Y-84340700D02*
X150463250Y-84829650D01*
X145167350Y-84702650D02*
X144653000Y-85217000D01*
X151015700Y-84366100D02*
X150799800Y-84150200D01*
X151015700Y-84429600D02*
X151015700Y-84366100D01*
X150799800Y-84150200D02*
X149479000Y-84150200D01*
X149288500Y-84340700D02*
X149479000Y-84150200D01*
X150698200Y-84048600D02*
X150799800Y-84150200D01*
X144119600Y-84048600D02*
X150698200Y-84048600D01*
X150698200Y-84048600D02*
X151015700Y-84366100D01*
X152247600Y-86614000D02*
X152247600Y-85661500D01*
%TO.N,OUT-*%
X152213500Y-89340500D02*
X152247600Y-89306400D01*
X142664100Y-90190400D02*
X143074400Y-90190400D01*
X143074400Y-91296500D02*
X143074400Y-91240600D01*
X143466900Y-90190400D02*
X143074400Y-90190400D01*
X142664100Y-90886200D02*
X142664100Y-90190400D01*
X143074400Y-91296500D02*
X142664100Y-90886200D01*
X146046000Y-92583000D02*
X143802100Y-92583000D01*
X143802100Y-92583000D02*
X143074400Y-91855300D01*
X143074400Y-91855300D02*
X143074400Y-91296500D01*
X143074400Y-91240600D02*
X143471900Y-90843100D01*
X143471900Y-90195400D02*
X143466900Y-90190400D01*
X143471900Y-90843100D02*
X143471900Y-90195400D01*
X143074400Y-90190400D02*
X143074400Y-90656400D01*
X143074400Y-92421700D02*
X143271490Y-92618790D01*
X143074400Y-91855300D02*
X143074400Y-92421700D01*
X150308500Y-89340500D02*
X152213500Y-89340500D01*
X150073902Y-89340500D02*
X150308500Y-89340500D01*
X149288500Y-89340500D02*
X150308500Y-89340500D01*
X144366764Y-92618790D02*
X144998210Y-92618790D01*
X143074400Y-91240600D02*
X143074400Y-91326426D01*
X144998210Y-92618790D02*
X146795612Y-92618790D01*
X143271490Y-92618790D02*
X144998210Y-92618790D01*
X143471900Y-91694000D02*
X143456937Y-91708963D01*
X143471900Y-90843100D02*
X143471900Y-91694000D01*
X143456937Y-91708963D02*
X144366764Y-92618790D01*
X143074400Y-91326426D02*
X143456937Y-91708963D01*
X151259999Y-90294001D02*
X152247600Y-89306400D01*
X146795612Y-92618790D02*
X149120401Y-90294001D01*
X149120401Y-90294001D02*
X150073902Y-89340500D01*
X152247600Y-89306400D02*
X152247600Y-89141300D01*
X152247600Y-89141300D02*
X151790400Y-88684100D01*
X149944900Y-88684100D02*
X149288500Y-89340500D01*
X151790400Y-88684100D02*
X149944900Y-88684100D01*
X149288500Y-89340500D02*
X146046000Y-92583000D01*
X150306498Y-89340500D02*
X151259999Y-90294001D01*
X149288500Y-89340500D02*
X150306498Y-89340500D01*
X150308500Y-89708800D02*
X149723299Y-90294001D01*
X150308500Y-89340500D02*
X150308500Y-89708800D01*
X149723299Y-90294001D02*
X151259999Y-90294001D01*
X149120401Y-90294001D02*
X149723299Y-90294001D01*
D15*
%TO.N,Net-(L1-Pad1)*%
X145694400Y-88290400D02*
X146596100Y-88290400D01*
D14*
X146596100Y-88290400D02*
X146837400Y-88290400D01*
X146596100Y-88290400D02*
X146735800Y-88290400D01*
X147218400Y-87909400D02*
X147218400Y-88773000D01*
X146735800Y-88290400D02*
X147218400Y-88773000D01*
X145694400Y-88290400D02*
X146735800Y-88290400D01*
X146837400Y-88290400D02*
X147218400Y-87909400D01*
X145694400Y-88290400D02*
X146837400Y-88290400D01*
X147116800Y-87909400D02*
X146735800Y-88290400D01*
X147218400Y-87909400D02*
X147116800Y-87909400D01*
D16*
%TO.N,Net-(R1-Pad1)*%
X145673000Y-90211800D02*
X145694400Y-90190400D01*
X145673000Y-91490800D02*
X145673000Y-90211800D01*
%TD*%
D17*
%TO.N,GND*%
X153419201Y-93068800D02*
X147267166Y-93068800D01*
X147277812Y-93055828D01*
X149389640Y-90944001D01*
X149691378Y-90944001D01*
X149723299Y-90947145D01*
X149755220Y-90944001D01*
X151228077Y-90944001D01*
X151259998Y-90947145D01*
X151259999Y-90947145D01*
X151291920Y-90944001D01*
X151291931Y-90944001D01*
X151387421Y-90934596D01*
X151509947Y-90897428D01*
X151622867Y-90837071D01*
X151721842Y-90755844D01*
X151742199Y-90731039D01*
X151951289Y-90521949D01*
X152124486Y-90556400D01*
X152370714Y-90556400D01*
X152612211Y-90508363D01*
X152839697Y-90414135D01*
X153044428Y-90277338D01*
X153218538Y-90103228D01*
X153355335Y-89898497D01*
X153419201Y-89744312D01*
X153419201Y-93068800D01*
%TA.AperFunction,Conductor*%
G36*
X153419201Y-93068800D02*
G01*
X147267166Y-93068800D01*
X147277812Y-93055828D01*
X149389640Y-90944001D01*
X149691378Y-90944001D01*
X149723299Y-90947145D01*
X149755220Y-90944001D01*
X151228077Y-90944001D01*
X151259998Y-90947145D01*
X151259999Y-90947145D01*
X151291920Y-90944001D01*
X151291931Y-90944001D01*
X151387421Y-90934596D01*
X151509947Y-90897428D01*
X151622867Y-90837071D01*
X151721842Y-90755844D01*
X151742199Y-90731039D01*
X151951289Y-90521949D01*
X152124486Y-90556400D01*
X152370714Y-90556400D01*
X152612211Y-90508363D01*
X152839697Y-90414135D01*
X153044428Y-90277338D01*
X153218538Y-90103228D01*
X153355335Y-89898497D01*
X153419201Y-89744312D01*
X153419201Y-93068800D01*
G37*
%TD.AperFunction*%
X142768157Y-83566404D02*
X142743357Y-83586757D01*
X142723004Y-83611557D01*
X142700312Y-83634249D01*
X142700308Y-83634254D01*
X142501458Y-83833104D01*
X142476658Y-83853457D01*
X142456305Y-83878257D01*
X142456302Y-83878260D01*
X142395430Y-83952432D01*
X142335073Y-84065353D01*
X142301502Y-84176022D01*
X142297906Y-84187878D01*
X142288500Y-84283368D01*
X142288500Y-84283379D01*
X142285356Y-84315300D01*
X142288500Y-84347221D01*
X142288500Y-84735003D01*
X142248540Y-84809763D01*
X142221441Y-84899096D01*
X142212291Y-84992000D01*
X142212291Y-85442000D01*
X142221441Y-85534904D01*
X142248540Y-85624237D01*
X142292547Y-85706568D01*
X142351769Y-85778731D01*
X142423932Y-85837953D01*
X142506263Y-85881960D01*
X142595596Y-85909059D01*
X142688500Y-85918209D01*
X143188500Y-85918209D01*
X143281404Y-85909059D01*
X143370737Y-85881960D01*
X143398725Y-85867000D01*
X143566968Y-85867000D01*
X143598900Y-85870145D01*
X143630831Y-85867000D01*
X144192775Y-85867000D01*
X144220763Y-85881960D01*
X144310096Y-85909059D01*
X144403000Y-85918209D01*
X144903000Y-85918209D01*
X144995904Y-85909059D01*
X145085237Y-85881960D01*
X145167568Y-85837953D01*
X145239731Y-85778731D01*
X145298953Y-85706568D01*
X145342960Y-85624237D01*
X145370059Y-85534904D01*
X145379209Y-85442000D01*
X145379209Y-85410029D01*
X145436588Y-85352650D01*
X150067012Y-85352650D01*
X151032051Y-86317690D01*
X150997600Y-86490886D01*
X150997600Y-86737114D01*
X151045637Y-86978611D01*
X151139865Y-87206097D01*
X151276662Y-87410828D01*
X151450772Y-87584938D01*
X151655503Y-87721735D01*
X151882989Y-87815963D01*
X152124486Y-87864000D01*
X152370714Y-87864000D01*
X152612211Y-87815963D01*
X152839697Y-87721735D01*
X153044428Y-87584938D01*
X153218538Y-87410828D01*
X153355335Y-87206097D01*
X153419200Y-87051913D01*
X153419201Y-88868488D01*
X153355335Y-88714303D01*
X153218538Y-88509572D01*
X153044428Y-88335462D01*
X152839697Y-88198665D01*
X152612211Y-88104437D01*
X152370714Y-88056400D01*
X152124486Y-88056400D01*
X152025342Y-88076121D01*
X151917822Y-88043505D01*
X151822332Y-88034100D01*
X151822321Y-88034100D01*
X151790400Y-88030956D01*
X151758479Y-88034100D01*
X149976824Y-88034100D01*
X149944900Y-88030956D01*
X149912976Y-88034100D01*
X149912968Y-88034100D01*
X149817478Y-88043505D01*
X149694952Y-88080673D01*
X149582032Y-88141030D01*
X149483057Y-88222257D01*
X149462700Y-88247062D01*
X149182971Y-88526791D01*
X148663497Y-88526791D01*
X148565717Y-88536422D01*
X148471694Y-88564943D01*
X148385042Y-88611259D01*
X148309091Y-88673591D01*
X148246759Y-88749542D01*
X148200443Y-88836194D01*
X148171922Y-88930217D01*
X148162291Y-89027997D01*
X148162291Y-89547470D01*
X146194209Y-91515553D01*
X146194209Y-91305800D01*
X146186788Y-91230454D01*
X146164811Y-91158004D01*
X146129121Y-91091234D01*
X146123000Y-91083776D01*
X146123000Y-90766609D01*
X146304400Y-90766609D01*
X146353408Y-90761782D01*
X146400534Y-90747487D01*
X146443964Y-90724273D01*
X146482032Y-90693032D01*
X146513273Y-90654964D01*
X146536487Y-90611534D01*
X146550782Y-90564408D01*
X146555609Y-90515400D01*
X146555609Y-89865400D01*
X146550782Y-89816392D01*
X146536487Y-89769266D01*
X146513273Y-89725836D01*
X146482032Y-89687768D01*
X146443964Y-89656527D01*
X146400534Y-89633313D01*
X146353408Y-89619018D01*
X146304400Y-89614191D01*
X145100502Y-89614191D01*
X145075337Y-89531235D01*
X145014980Y-89418315D01*
X144933753Y-89319340D01*
X144908949Y-89298984D01*
X144384514Y-88774548D01*
X144384514Y-88470638D01*
X144387658Y-88438714D01*
X144384514Y-88406790D01*
X144384514Y-88406782D01*
X144375109Y-88311292D01*
X144337941Y-88188766D01*
X144277584Y-88075846D01*
X144196357Y-87976871D01*
X144182380Y-87965400D01*
X144833191Y-87965400D01*
X144833191Y-88615400D01*
X144838018Y-88664408D01*
X144852313Y-88711534D01*
X144875527Y-88754964D01*
X144906768Y-88793032D01*
X144944836Y-88824273D01*
X144988266Y-88847487D01*
X145035392Y-88861782D01*
X145084400Y-88866609D01*
X145393531Y-88866609D01*
X145444452Y-88893827D01*
X145566978Y-88930995D01*
X145662468Y-88940400D01*
X146466562Y-88940400D01*
X146713512Y-89187351D01*
X146736210Y-89210049D01*
X146756558Y-89234843D01*
X146781352Y-89255191D01*
X146804049Y-89277888D01*
X146830730Y-89295715D01*
X146855531Y-89316069D01*
X146855533Y-89316070D01*
X146883829Y-89331194D01*
X146910510Y-89349022D01*
X146940156Y-89361302D01*
X146968453Y-89376427D01*
X146999153Y-89385740D01*
X147028802Y-89398021D01*
X147060278Y-89404282D01*
X147090979Y-89413595D01*
X147122909Y-89416740D01*
X147154381Y-89423000D01*
X147186469Y-89423000D01*
X147218400Y-89426145D01*
X147250332Y-89423000D01*
X147282419Y-89423000D01*
X147313890Y-89416740D01*
X147345822Y-89413595D01*
X147376525Y-89404281D01*
X147407998Y-89398021D01*
X147437644Y-89385741D01*
X147468348Y-89376427D01*
X147496648Y-89361300D01*
X147526290Y-89349022D01*
X147552967Y-89331197D01*
X147581268Y-89316070D01*
X147606070Y-89295715D01*
X147632751Y-89277888D01*
X147655443Y-89255196D01*
X147680243Y-89234843D01*
X147700596Y-89210043D01*
X147723288Y-89187351D01*
X147741115Y-89160670D01*
X147761470Y-89135868D01*
X147776597Y-89107567D01*
X147794422Y-89080890D01*
X147806700Y-89051248D01*
X147821827Y-89022948D01*
X147831141Y-88992244D01*
X147843421Y-88962598D01*
X147849681Y-88931125D01*
X147858995Y-88900422D01*
X147862140Y-88868490D01*
X147868400Y-88837019D01*
X147868400Y-88804920D01*
X147871544Y-88772999D01*
X147868400Y-88741078D01*
X147868400Y-87941332D01*
X147871545Y-87909400D01*
X147868400Y-87877468D01*
X147868400Y-87845381D01*
X147862140Y-87813910D01*
X147858995Y-87781978D01*
X147849681Y-87751275D01*
X147843421Y-87719802D01*
X147831141Y-87690156D01*
X147821827Y-87659452D01*
X147806700Y-87631152D01*
X147794422Y-87601510D01*
X147776597Y-87574833D01*
X147761470Y-87546532D01*
X147741115Y-87521730D01*
X147723288Y-87495049D01*
X147700596Y-87472357D01*
X147680243Y-87447557D01*
X147655445Y-87427206D01*
X147632751Y-87404512D01*
X147606070Y-87386685D01*
X147581268Y-87366330D01*
X147552967Y-87351203D01*
X147526290Y-87333378D01*
X147496648Y-87321100D01*
X147468348Y-87305973D01*
X147437644Y-87296659D01*
X147407998Y-87284379D01*
X147376525Y-87278119D01*
X147345822Y-87268805D01*
X147313890Y-87265660D01*
X147282419Y-87259400D01*
X147250331Y-87259400D01*
X147218400Y-87256255D01*
X147186468Y-87259400D01*
X147148720Y-87259400D01*
X147116799Y-87256256D01*
X147084878Y-87259400D01*
X147084868Y-87259400D01*
X146989378Y-87268805D01*
X146866852Y-87305973D01*
X146753932Y-87366330D01*
X146654957Y-87447557D01*
X146634600Y-87472362D01*
X146466562Y-87640400D01*
X145662468Y-87640400D01*
X145566978Y-87649805D01*
X145444452Y-87686973D01*
X145393531Y-87714191D01*
X145084400Y-87714191D01*
X145035392Y-87719018D01*
X144988266Y-87733313D01*
X144944836Y-87756527D01*
X144906768Y-87787768D01*
X144875527Y-87825836D01*
X144852313Y-87869266D01*
X144838018Y-87916392D01*
X144833191Y-87965400D01*
X144182380Y-87965400D01*
X144171549Y-87956512D01*
X144068398Y-87853360D01*
X144048043Y-87828557D01*
X143949068Y-87747330D01*
X143836148Y-87686973D01*
X143713622Y-87649805D01*
X143618132Y-87640400D01*
X143618121Y-87640400D01*
X143586200Y-87637256D01*
X143554279Y-87640400D01*
X143106331Y-87640400D01*
X143074400Y-87637255D01*
X143042468Y-87640400D01*
X142691020Y-87640400D01*
X142659099Y-87637256D01*
X142627178Y-87640400D01*
X142627168Y-87640400D01*
X142531678Y-87649805D01*
X142409152Y-87686973D01*
X142296232Y-87747330D01*
X142197257Y-87828557D01*
X142176902Y-87853360D01*
X141815662Y-88214600D01*
X141790857Y-88234957D01*
X141770502Y-88259760D01*
X141510865Y-88519397D01*
X141510859Y-88519402D01*
X141510857Y-88519404D01*
X141486057Y-88539757D01*
X141465704Y-88564557D01*
X141029371Y-89000891D01*
X139336599Y-89000891D01*
X139238818Y-89010522D01*
X139144795Y-89039043D01*
X139058143Y-89085360D01*
X138982191Y-89147691D01*
X138919860Y-89223643D01*
X138873543Y-89310295D01*
X138845022Y-89404318D01*
X138835391Y-89502099D01*
X138835391Y-90152101D01*
X138845022Y-90249882D01*
X138873543Y-90343905D01*
X138919860Y-90430557D01*
X138982191Y-90506509D01*
X139058143Y-90568840D01*
X139144795Y-90615157D01*
X139238818Y-90643678D01*
X139336599Y-90653309D01*
X139786601Y-90653309D01*
X139786600Y-90904354D01*
X139639772Y-91002462D01*
X139465662Y-91176572D01*
X139328865Y-91381303D01*
X139234637Y-91608789D01*
X139186600Y-91850286D01*
X139186600Y-92096514D01*
X139234637Y-92338011D01*
X139328865Y-92565497D01*
X139465662Y-92770228D01*
X139639772Y-92944338D01*
X139826042Y-93068800D01*
X138731600Y-93068800D01*
X138731600Y-83562800D01*
X142771761Y-83562800D01*
X142768157Y-83566404D01*
%TA.AperFunction,Conductor*%
G36*
X142768157Y-83566404D02*
G01*
X142743357Y-83586757D01*
X142723004Y-83611557D01*
X142700312Y-83634249D01*
X142700308Y-83634254D01*
X142501458Y-83833104D01*
X142476658Y-83853457D01*
X142456305Y-83878257D01*
X142456302Y-83878260D01*
X142395430Y-83952432D01*
X142335073Y-84065353D01*
X142301502Y-84176022D01*
X142297906Y-84187878D01*
X142288500Y-84283368D01*
X142288500Y-84283379D01*
X142285356Y-84315300D01*
X142288500Y-84347221D01*
X142288500Y-84735003D01*
X142248540Y-84809763D01*
X142221441Y-84899096D01*
X142212291Y-84992000D01*
X142212291Y-85442000D01*
X142221441Y-85534904D01*
X142248540Y-85624237D01*
X142292547Y-85706568D01*
X142351769Y-85778731D01*
X142423932Y-85837953D01*
X142506263Y-85881960D01*
X142595596Y-85909059D01*
X142688500Y-85918209D01*
X143188500Y-85918209D01*
X143281404Y-85909059D01*
X143370737Y-85881960D01*
X143398725Y-85867000D01*
X143566968Y-85867000D01*
X143598900Y-85870145D01*
X143630831Y-85867000D01*
X144192775Y-85867000D01*
X144220763Y-85881960D01*
X144310096Y-85909059D01*
X144403000Y-85918209D01*
X144903000Y-85918209D01*
X144995904Y-85909059D01*
X145085237Y-85881960D01*
X145167568Y-85837953D01*
X145239731Y-85778731D01*
X145298953Y-85706568D01*
X145342960Y-85624237D01*
X145370059Y-85534904D01*
X145379209Y-85442000D01*
X145379209Y-85410029D01*
X145436588Y-85352650D01*
X150067012Y-85352650D01*
X151032051Y-86317690D01*
X150997600Y-86490886D01*
X150997600Y-86737114D01*
X151045637Y-86978611D01*
X151139865Y-87206097D01*
X151276662Y-87410828D01*
X151450772Y-87584938D01*
X151655503Y-87721735D01*
X151882989Y-87815963D01*
X152124486Y-87864000D01*
X152370714Y-87864000D01*
X152612211Y-87815963D01*
X152839697Y-87721735D01*
X153044428Y-87584938D01*
X153218538Y-87410828D01*
X153355335Y-87206097D01*
X153419200Y-87051913D01*
X153419201Y-88868488D01*
X153355335Y-88714303D01*
X153218538Y-88509572D01*
X153044428Y-88335462D01*
X152839697Y-88198665D01*
X152612211Y-88104437D01*
X152370714Y-88056400D01*
X152124486Y-88056400D01*
X152025342Y-88076121D01*
X151917822Y-88043505D01*
X151822332Y-88034100D01*
X151822321Y-88034100D01*
X151790400Y-88030956D01*
X151758479Y-88034100D01*
X149976824Y-88034100D01*
X149944900Y-88030956D01*
X149912976Y-88034100D01*
X149912968Y-88034100D01*
X149817478Y-88043505D01*
X149694952Y-88080673D01*
X149582032Y-88141030D01*
X149483057Y-88222257D01*
X149462700Y-88247062D01*
X149182971Y-88526791D01*
X148663497Y-88526791D01*
X148565717Y-88536422D01*
X148471694Y-88564943D01*
X148385042Y-88611259D01*
X148309091Y-88673591D01*
X148246759Y-88749542D01*
X148200443Y-88836194D01*
X148171922Y-88930217D01*
X148162291Y-89027997D01*
X148162291Y-89547470D01*
X146194209Y-91515553D01*
X146194209Y-91305800D01*
X146186788Y-91230454D01*
X146164811Y-91158004D01*
X146129121Y-91091234D01*
X146123000Y-91083776D01*
X146123000Y-90766609D01*
X146304400Y-90766609D01*
X146353408Y-90761782D01*
X146400534Y-90747487D01*
X146443964Y-90724273D01*
X146482032Y-90693032D01*
X146513273Y-90654964D01*
X146536487Y-90611534D01*
X146550782Y-90564408D01*
X146555609Y-90515400D01*
X146555609Y-89865400D01*
X146550782Y-89816392D01*
X146536487Y-89769266D01*
X146513273Y-89725836D01*
X146482032Y-89687768D01*
X146443964Y-89656527D01*
X146400534Y-89633313D01*
X146353408Y-89619018D01*
X146304400Y-89614191D01*
X145100502Y-89614191D01*
X145075337Y-89531235D01*
X145014980Y-89418315D01*
X144933753Y-89319340D01*
X144908949Y-89298984D01*
X144384514Y-88774548D01*
X144384514Y-88470638D01*
X144387658Y-88438714D01*
X144384514Y-88406790D01*
X144384514Y-88406782D01*
X144375109Y-88311292D01*
X144337941Y-88188766D01*
X144277584Y-88075846D01*
X144196357Y-87976871D01*
X144182380Y-87965400D01*
X144833191Y-87965400D01*
X144833191Y-88615400D01*
X144838018Y-88664408D01*
X144852313Y-88711534D01*
X144875527Y-88754964D01*
X144906768Y-88793032D01*
X144944836Y-88824273D01*
X144988266Y-88847487D01*
X145035392Y-88861782D01*
X145084400Y-88866609D01*
X145393531Y-88866609D01*
X145444452Y-88893827D01*
X145566978Y-88930995D01*
X145662468Y-88940400D01*
X146466562Y-88940400D01*
X146713512Y-89187351D01*
X146736210Y-89210049D01*
X146756558Y-89234843D01*
X146781352Y-89255191D01*
X146804049Y-89277888D01*
X146830730Y-89295715D01*
X146855531Y-89316069D01*
X146855533Y-89316070D01*
X146883829Y-89331194D01*
X146910510Y-89349022D01*
X146940156Y-89361302D01*
X146968453Y-89376427D01*
X146999153Y-89385740D01*
X147028802Y-89398021D01*
X147060278Y-89404282D01*
X147090979Y-89413595D01*
X147122909Y-89416740D01*
X147154381Y-89423000D01*
X147186469Y-89423000D01*
X147218400Y-89426145D01*
X147250332Y-89423000D01*
X147282419Y-89423000D01*
X147313890Y-89416740D01*
X147345822Y-89413595D01*
X147376525Y-89404281D01*
X147407998Y-89398021D01*
X147437644Y-89385741D01*
X147468348Y-89376427D01*
X147496648Y-89361300D01*
X147526290Y-89349022D01*
X147552967Y-89331197D01*
X147581268Y-89316070D01*
X147606070Y-89295715D01*
X147632751Y-89277888D01*
X147655443Y-89255196D01*
X147680243Y-89234843D01*
X147700596Y-89210043D01*
X147723288Y-89187351D01*
X147741115Y-89160670D01*
X147761470Y-89135868D01*
X147776597Y-89107567D01*
X147794422Y-89080890D01*
X147806700Y-89051248D01*
X147821827Y-89022948D01*
X147831141Y-88992244D01*
X147843421Y-88962598D01*
X147849681Y-88931125D01*
X147858995Y-88900422D01*
X147862140Y-88868490D01*
X147868400Y-88837019D01*
X147868400Y-88804920D01*
X147871544Y-88772999D01*
X147868400Y-88741078D01*
X147868400Y-87941332D01*
X147871545Y-87909400D01*
X147868400Y-87877468D01*
X147868400Y-87845381D01*
X147862140Y-87813910D01*
X147858995Y-87781978D01*
X147849681Y-87751275D01*
X147843421Y-87719802D01*
X147831141Y-87690156D01*
X147821827Y-87659452D01*
X147806700Y-87631152D01*
X147794422Y-87601510D01*
X147776597Y-87574833D01*
X147761470Y-87546532D01*
X147741115Y-87521730D01*
X147723288Y-87495049D01*
X147700596Y-87472357D01*
X147680243Y-87447557D01*
X147655445Y-87427206D01*
X147632751Y-87404512D01*
X147606070Y-87386685D01*
X147581268Y-87366330D01*
X147552967Y-87351203D01*
X147526290Y-87333378D01*
X147496648Y-87321100D01*
X147468348Y-87305973D01*
X147437644Y-87296659D01*
X147407998Y-87284379D01*
X147376525Y-87278119D01*
X147345822Y-87268805D01*
X147313890Y-87265660D01*
X147282419Y-87259400D01*
X147250331Y-87259400D01*
X147218400Y-87256255D01*
X147186468Y-87259400D01*
X147148720Y-87259400D01*
X147116799Y-87256256D01*
X147084878Y-87259400D01*
X147084868Y-87259400D01*
X146989378Y-87268805D01*
X146866852Y-87305973D01*
X146753932Y-87366330D01*
X146654957Y-87447557D01*
X146634600Y-87472362D01*
X146466562Y-87640400D01*
X145662468Y-87640400D01*
X145566978Y-87649805D01*
X145444452Y-87686973D01*
X145393531Y-87714191D01*
X145084400Y-87714191D01*
X145035392Y-87719018D01*
X144988266Y-87733313D01*
X144944836Y-87756527D01*
X144906768Y-87787768D01*
X144875527Y-87825836D01*
X144852313Y-87869266D01*
X144838018Y-87916392D01*
X144833191Y-87965400D01*
X144182380Y-87965400D01*
X144171549Y-87956512D01*
X144068398Y-87853360D01*
X144048043Y-87828557D01*
X143949068Y-87747330D01*
X143836148Y-87686973D01*
X143713622Y-87649805D01*
X143618132Y-87640400D01*
X143618121Y-87640400D01*
X143586200Y-87637256D01*
X143554279Y-87640400D01*
X143106331Y-87640400D01*
X143074400Y-87637255D01*
X143042468Y-87640400D01*
X142691020Y-87640400D01*
X142659099Y-87637256D01*
X142627178Y-87640400D01*
X142627168Y-87640400D01*
X142531678Y-87649805D01*
X142409152Y-87686973D01*
X142296232Y-87747330D01*
X142197257Y-87828557D01*
X142176902Y-87853360D01*
X141815662Y-88214600D01*
X141790857Y-88234957D01*
X141770502Y-88259760D01*
X141510865Y-88519397D01*
X141510859Y-88519402D01*
X141510857Y-88519404D01*
X141486057Y-88539757D01*
X141465704Y-88564557D01*
X141029371Y-89000891D01*
X139336599Y-89000891D01*
X139238818Y-89010522D01*
X139144795Y-89039043D01*
X139058143Y-89085360D01*
X138982191Y-89147691D01*
X138919860Y-89223643D01*
X138873543Y-89310295D01*
X138845022Y-89404318D01*
X138835391Y-89502099D01*
X138835391Y-90152101D01*
X138845022Y-90249882D01*
X138873543Y-90343905D01*
X138919860Y-90430557D01*
X138982191Y-90506509D01*
X139058143Y-90568840D01*
X139144795Y-90615157D01*
X139238818Y-90643678D01*
X139336599Y-90653309D01*
X139786601Y-90653309D01*
X139786600Y-90904354D01*
X139639772Y-91002462D01*
X139465662Y-91176572D01*
X139328865Y-91381303D01*
X139234637Y-91608789D01*
X139186600Y-91850286D01*
X139186600Y-92096514D01*
X139234637Y-92338011D01*
X139328865Y-92565497D01*
X139465662Y-92770228D01*
X139639772Y-92944338D01*
X139826042Y-93068800D01*
X138731600Y-93068800D01*
X138731600Y-83562800D01*
X142771761Y-83562800D01*
X142768157Y-83566404D01*
G37*
%TD.AperFunction*%
X142014100Y-90854279D02*
X142010956Y-90886200D01*
X142014100Y-90918121D01*
X142014100Y-90918131D01*
X142023505Y-91013621D01*
X142053706Y-91113179D01*
X142060673Y-91136147D01*
X142121030Y-91249068D01*
X142129860Y-91259827D01*
X142202257Y-91348043D01*
X142227063Y-91368401D01*
X142424400Y-91565737D01*
X142424400Y-91823379D01*
X142421256Y-91855300D01*
X142424400Y-91887221D01*
X142424400Y-92389779D01*
X142421256Y-92421700D01*
X142424400Y-92453621D01*
X142424400Y-92453632D01*
X142433805Y-92549122D01*
X142470973Y-92671648D01*
X142531330Y-92784568D01*
X142612558Y-92883543D01*
X142637358Y-92903896D01*
X142789290Y-93055828D01*
X142799936Y-93068800D01*
X141047158Y-93068800D01*
X141233428Y-92944338D01*
X141407538Y-92770228D01*
X141544335Y-92565497D01*
X141638563Y-92338011D01*
X141686600Y-92096514D01*
X141686600Y-91850286D01*
X141638563Y-91608789D01*
X141544335Y-91381303D01*
X141407538Y-91176572D01*
X141233428Y-91002462D01*
X141086600Y-90904355D01*
X141086600Y-90653309D01*
X141536601Y-90653309D01*
X141634382Y-90643678D01*
X141728405Y-90615157D01*
X141815057Y-90568840D01*
X141891009Y-90506509D01*
X141953340Y-90430557D01*
X141999657Y-90343905D01*
X142014100Y-90296292D01*
X142014100Y-90854279D01*
%TA.AperFunction,Conductor*%
G36*
X142014100Y-90854279D02*
G01*
X142010956Y-90886200D01*
X142014100Y-90918121D01*
X142014100Y-90918131D01*
X142023505Y-91013621D01*
X142053706Y-91113179D01*
X142060673Y-91136147D01*
X142121030Y-91249068D01*
X142129860Y-91259827D01*
X142202257Y-91348043D01*
X142227063Y-91368401D01*
X142424400Y-91565737D01*
X142424400Y-91823379D01*
X142421256Y-91855300D01*
X142424400Y-91887221D01*
X142424400Y-92389779D01*
X142421256Y-92421700D01*
X142424400Y-92453621D01*
X142424400Y-92453632D01*
X142433805Y-92549122D01*
X142470973Y-92671648D01*
X142531330Y-92784568D01*
X142612558Y-92883543D01*
X142637358Y-92903896D01*
X142789290Y-93055828D01*
X142799936Y-93068800D01*
X141047158Y-93068800D01*
X141233428Y-92944338D01*
X141407538Y-92770228D01*
X141544335Y-92565497D01*
X141638563Y-92338011D01*
X141686600Y-92096514D01*
X141686600Y-91850286D01*
X141638563Y-91608789D01*
X141544335Y-91381303D01*
X141407538Y-91176572D01*
X141233428Y-91002462D01*
X141086600Y-90904355D01*
X141086600Y-90653309D01*
X141536601Y-90653309D01*
X141634382Y-90643678D01*
X141728405Y-90615157D01*
X141815057Y-90568840D01*
X141891009Y-90506509D01*
X141953340Y-90430557D01*
X141999657Y-90343905D01*
X142014100Y-90296292D01*
X142014100Y-90854279D01*
G37*
%TD.AperFunction*%
X153419200Y-86176087D02*
X153355335Y-86021903D01*
X153218538Y-85817172D01*
X153044428Y-85643062D01*
X152888679Y-85538994D01*
X152888195Y-85534078D01*
X152851027Y-85411552D01*
X152790670Y-85298632D01*
X152709443Y-85199657D01*
X152684638Y-85179300D01*
X151616414Y-84111076D01*
X151558770Y-84003233D01*
X151537924Y-83977832D01*
X151477543Y-83904257D01*
X151452733Y-83883896D01*
X151367489Y-83798652D01*
X151281998Y-83713160D01*
X151261643Y-83688357D01*
X151236836Y-83667999D01*
X151180401Y-83611563D01*
X151160043Y-83586757D01*
X151130851Y-83562800D01*
X153419200Y-83562800D01*
X153419200Y-86176087D01*
%TA.AperFunction,Conductor*%
G36*
X153419200Y-86176087D02*
G01*
X153355335Y-86021903D01*
X153218538Y-85817172D01*
X153044428Y-85643062D01*
X152888679Y-85538994D01*
X152888195Y-85534078D01*
X152851027Y-85411552D01*
X152790670Y-85298632D01*
X152709443Y-85199657D01*
X152684638Y-85179300D01*
X151616414Y-84111076D01*
X151558770Y-84003233D01*
X151537924Y-83977832D01*
X151477543Y-83904257D01*
X151452733Y-83883896D01*
X151367489Y-83798652D01*
X151281998Y-83713160D01*
X151261643Y-83688357D01*
X151236836Y-83667999D01*
X151180401Y-83611563D01*
X151160043Y-83586757D01*
X151130851Y-83562800D01*
X153419200Y-83562800D01*
X153419200Y-86176087D01*
G37*
%TD.AperFunction*%
%TD*%
M02*
